<?xml version="1.0" encoding="UTF-8"?>
<svg width="800px" height="800px" viewBox="0 0 24 24" xmlns="http://www.w3.org/2000/svg"><path d="m2 6.4776c0-1.3768 0-2.0652 0.22168-2.6094 0.30477-0.74814 0.89839-1.3418 1.6465-1.6465 0.54419-0.22168 1.2326-0.22168 2.6094-0.22168s2.0652 0 2.6094 0.22168c0.74815 0.30477 1.3418 0.89839 1.6466 1.6465 0.2216 0.54419 0.2216 1.2326 0.2216 2.6094s0 2.0652-0.2216 2.6094c-0.3048 0.74815-0.89843 1.3418-1.6466 1.6466-0.54418 0.2216-1.2326 0.2216-2.6094 0.2216s-2.0652 0-2.6094-0.2216c-0.74814-0.3048-1.3418-0.89843-1.6465-1.6466-0.22168-0.54418-0.22168-1.2326-0.22168-2.6094z" fill="#fff"/><path d="m2 17.522c0-1.3768 0-2.0652 0.22168-2.6094 0.30477-0.7481 0.89839-1.3418 1.6465-1.6465 0.54419-0.2217 1.2326-0.2217 2.6094-0.2217s2.0652 0 2.6094 0.2217c0.74815 0.3047 1.3418 0.8984 1.6466 1.6465 0.2216 0.5442 0.2216 1.2326 0.2216 2.6094s0 2.0652-0.2216 2.6094c-0.3048 0.7482-0.89843 1.3418-1.6466 1.6465-0.54418 0.2217-1.2326 0.2217-2.6094 0.2217s-2.0652 0-2.6094-0.2217c-0.74814-0.3047-1.3418-0.8983-1.6465-1.6465-0.22168-0.5442-0.22168-1.2326-0.22168-2.6094z" fill="#fff"/><path d="m13.045 17.522c0-1.3768 0-2.0652 0.2217-2.6094 0.3048-0.7481 0.8984-1.3418 1.6465-1.6465 0.5442-0.2217 1.2326-0.2217 2.6094-0.2217 1.3769 0 2.0653 0 2.6094 0.2217 0.7482 0.3047 1.3418 0.8984 1.6466 1.6465 0.2217 0.5442 0.2217 1.2326 0.2217 2.6094s0 2.0652-0.2217 2.6094c-0.3048 0.7482-0.8984 1.3418-1.6466 1.6465-0.5441 0.2217-1.2325 0.2217-2.6094 0.2217-1.3768 0-2.0652 0-2.6094-0.2217-0.7481-0.3047-1.3417-0.8983-1.6465-1.6465-0.2217-0.5442-0.2217-1.2326-0.2217-2.6094z" fill="#fff"/><path d="m16.772 9.4777c0 0.41421 0.3357 0.75004 0.75 0.75004 0.4142 0 0.75-0.33583 0.75-0.75004v-2.25h2.25c0.4142 0 0.75-0.33579 0.75-0.75s-0.3358-0.75-0.75-0.75h-2.25v-2.25c0-0.41421-0.3358-0.75-0.75-0.75-0.4143 0-0.75 0.33579-0.75 0.75v2.25h-2.25c-0.4143 0-0.75 0.33579-0.75 0.75s0.3357 0.75 0.75 0.75h2.25v2.25z" clip-rule="evenodd" fill="#fff" fill-rule="evenodd"/></svg>
