<?xml version="1.0" encoding="UTF-8"?>
<svg width="800px" height="800px" fill="none" viewBox="0 0 24 24" xmlns="http://www.w3.org/2000/svg"><path d="m9 10h0.01m5.99 0h0.01m-6.4748 4c0.69162 1.1956 1.9843 2 3.4648 2 1.4806 0 2.7733-0.8044 3.4649-2m-3.4649 6c3.7277 0 6.8599-2.5495 7.748-6h0.252c1.1046 0 2-0.8954 2-2s-0.8954-2-2-2h-0.252c-0.8881-3.4504-4.0203-6-7.748-6s-6.8599 2.5496-7.748 6h-0.25204c-1.1046 0-2 0.8954-2 2s0.89543 2 2 2h0.25204c0.88808 3.4505 4.0203 6 7.748 6z" stroke="#fff" stroke-linecap="round" stroke-linejoin="round" stroke-width="2"/></svg>
