<?xml version="1.0" encoding="UTF-8"?>
<svg width="800px" height="800px" fill="#FFFFFF" version="1.1" viewBox="0 0 15 15" xmlns="http://www.w3.org/2000/svg"><path d="m13.5 1c-0.0804 8e-4 -0.1594 0.0214-0.23 0.06l-8.77 2.44c-0.2761 0-0.5 0.2239-0.5 0.5v6.28c-0.3029-0.1798-0.6478-0.2763-1-0.28-1.1046 0-2 0.8954-2 2s0.8954 2 2 2 2-0.8954 2-2v-4.64l8-2.22v3.64c-0.3029-0.1798-0.6478-0.2763-1-0.28-1.1046 0-2 0.8954-2 2s0.8954 2 2 2 2-0.8954 2-2v-9c0-0.2761-0.2239-0.5-0.5-0.5zm-0.5 3.14-8 2.22v-2l8-2.22v2z"/></svg>
