<?xml version="1.0" encoding="UTF-8"?>
<svg enable-background="new 0 0 512 512" fill="#FFFFFF" version="1.1" viewBox="0 0 512 512" xml:space="preserve" xmlns="http://www.w3.org/2000/svg">

	
		<polygon points="311.65 205.91 311.65 172.52 200.35 172.52 200.35 339.48 311.65 339.48 311.65 306.09 233.74 306.09 233.74 272.7 311.65 272.7 311.65 239.3 233.74 239.3 233.74 205.91"/>
	


	
		<polygon points="133.56 172.52 133.56 272.7 100.17 272.7 100.17 306.09 133.56 306.09 133.56 339.48 166.96 339.48 166.96 172.52"/>
	


	
		<polygon points="33.391 205.91 33.391 172.52 0 172.52 0 339.48 33.391 339.48 33.391 239.3 66.783 239.3 66.783 205.91"/>
	


	
		<rect x="66.783" y="239.3" width="33.391" height="33.391"/>
	


	
		<polygon points="478.61 172.52 478.61 306.09 445.22 306.09 445.22 217.04 411.83 217.04 411.83 306.09 378.44 306.09 378.44 172.52 345.04 172.52 345.04 339.48 512 339.48 512 172.52"/>
	

</svg>
