<?xml version="1.0" encoding="UTF-8"?>
<svg width="800px" height="800px" viewBox="0 0 16 16" xmlns="http://www.w3.org/2000/svg"><path d="m10.454 4.3966c-0.4248-0.94661-1.2625-1.9408-2.5578-3.0049-0.54869-0.45075-1.1795-0.91406-1.8958-1.3916 0 0.80194-0.12703 1.5283-0.33582 2.1997-0.41885 1.3468-1.1667 2.4724-1.8781 3.5429-0.92384 1.3904-1.7861 2.6881-1.7861 4.2574 0 3.3137 2.6863 6 6 6s6-2.6863 6-6c0-0.59349-0.0932-1.1753-0.2594-1.7412-0.2132-0.72609-0.5468-1.4258-0.9582-2.0897-0.1048-0.16908-0.2146-0.33584-0.3287-0.50013 0 0.84355-0.3868 1.6438-0.9516 2.3215-0.208 0.24962-0.4401 0.48264-0.686 0.69509-0.3817 0.32991-0.7965 0.61023-1.2053 0.82618-0.05929 0.03133-0.11845 0.0613-0.17736 0.08986-0.43236 0.20966-0.63135-0.23548-0.28573-0.56931 0.00219-0.00212 0.00439-0.00424 0.00658-0.00636 0.38487-0.37247 0.70525-0.7466 0.95737-1.1243 0.485-0.72662 0.7174-1.4664 0.67-2.2327-0.0256-0.41561-0.1336-0.83904-0.328-1.2724zm1.5342 5.9174c-0.5378 0.4454-1.116 0.8129-1.6818 1.0873-0.39806 0.193-0.96795 0.3443-1.6074 0.1935-0.67655-0.1596-1.2188-0.6138-1.5044-1.2117-0.5468-1.1444-0.01079-2.234 0.56399-2.7892 1.0947-1.0574 1.1094-1.6721 0.96022-2.1453-0.14706-0.46635-0.55105-1.1034-1.4086-1.9117-0.50908 1.2845-1.2106 2.3392-1.7878 3.2069-0.02364 0.03554-0.04707 0.07076-0.07026 0.10567-0.99736 1.501-1.4519 2.2899-1.4519 3.1506 0 2.2091 1.7909 4 4 4 2.1035 0 3.8278-1.6237 3.9879-3.6861z" fill="#fff" fill-rule="evenodd"/></svg>
