<?xml version="1.0" encoding="UTF-8"?>
<svg width="800px" height="800px" enable-background="new 0 0 32 32" version="1.1" viewBox="0 0 32 32" xml:space="preserve" xmlns="http://www.w3.org/2000/svg">

<g fill="#fff">

<path d="m31 30c0 0.552-0.447 1-1 1h-8c-0.553 0-1-0.448-1-1s0.447-1 1-1h8c0.553 0 1 0.448 1 1zm-12-1h-2c-0.553 0-1 0.448-1 1s0.447 1 1 1h2c0.553 0 1-0.448 1-1s-0.447-1-1-1zm-5 0h-12c-0.553 0-1 0.448-1 1s0.447 1 1 1h12c0.553 0 1-0.448 1-1s-0.447-1-1-1z"/>

<path d="m15.342 18.447 2.211-1.105 0.553 1.105c0.175 0.351 0.528 0.553 0.895 0.553 0.15 0 0.303-0.034 0.446-0.105 0.494-0.247 0.694-0.848 0.447-1.342l-0.553-1.105 4.211-2.106 0.553 1.106c0.176 0.35 0.529 0.552 0.896 0.552 0.15 0 0.303-0.034 0.446-0.106 0.494-0.247 0.694-0.848 0.447-1.342l-0.553-1.105 2.211-1.106 0.553 1.106c0.176 0.351 0.529 0.553 0.896 0.553 0.15 0 0.303-0.034 0.446-0.106 0.494-0.247 0.694-0.848 0.447-1.342l-0.553-1.105 1.106-0.553c0.339-0.169 0.553-0.515 0.553-0.894 0-3.593-0.772-6.186-2.293-7.707-1.257-1.256-2.563-1.293-2.707-1.293-0.496 0-0.917 0.363-0.989 0.854-0.226 1.53-0.78 2.493-1.693 2.944-1.779 0.879-4.69-0.329-5.662-0.868-0.47-0.261-1.065-0.104-1.343 0.357l-0.364 0.604-0.034-1.886c-7e-3 -0.35-0.196-0.671-0.499-0.847-0.305-0.177-0.677-0.181-0.983-0.011-4.396 2.419-4.679 6.781-4.606 8.489-7.664 4.487-8.827 10.271-8.827 13.364 0 0.347 0.18 0.669 0.475 0.851 0.16 0.099 0.342 0.149 0.525 0.149 0.153 0 0.306-0.035 0.447-0.105l3.105-1.553 0.553 1.105c0.176 0.351 0.529 0.553 0.896 0.553 0.15 0 0.303-0.034 0.446-0.105 0.494-0.247 0.694-0.848 0.447-1.342l-0.553-1.105 2.211-1.105 0.553 1.105c0.176 0.35 0.529 0.552 0.896 0.552 0.15 0 0.303-0.034 0.446-0.105 0.494-0.247 0.694-0.848 0.447-1.342l-0.553-1.105 2.211-1.105 0.553 1.105c0.176 0.35 0.529 0.552 0.896 0.552 0.15 0 0.303-0.034 0.446-0.105 0.494-0.247 0.694-0.848 0.447-1.342l-0.552-1.106zm-1.788-1.342c-1e-3 0-1e-3 0 0 0-1e-3 0-1e-3 1e-3 -2e-3 1e-3l-3.999 1.999h-1e-3l-3.999 2-2.418 1.209c0.455-2.864 2.258-6.943 8.225-10.25 0.366-0.203 0.567-0.613 0.504-1.026-6e-3 -0.042-0.518-3.622 2.086-6.089l0.063 3.451c9e-3 0.445 0.311 0.832 0.741 0.947 0.431 0.113 0.885-0.068 1.115-0.45l1.686-2.796c1.437 0.63 4.358 1.616 6.643 0.493 1.251-0.615 2.106-1.73 2.555-3.32 0.856 0.509 2.126 1.963 2.24 6.112l-1.438 0.719c-1e-3 0-1e-3 0-2e-3 1e-3 -1e-3 0-1e-3 1e-3 -2e-3 1e-3l-3.997 1.998s-1e-3 0-2e-3 1e-3c-1e-3 0-1e-3 1e-3 -1e-3 1e-3l-5.997 2.999h-1e-3s-1e-3 0-1e-3 1e-3l-3.998 1.998z"/>

</g>

</svg>
