<?xml version="1.0" encoding="UTF-8"?>
<svg width="800px" height="800px" fill="#FFFFFF" viewBox="0 0 24 24" xmlns="http://www.w3.org/2000/svg"><path d="m3.6129 17.79 0.094207-0.083189 6.2929-6.2921 3.2929 3.2921c0.36048 0.36048 0.92772 0.38821 1.32 0.083189l0.094207-0.083189 4.2929-4.2921 1.2929 1.2921c0.60258 0.60258 1.6143 0.22056 1.7011-0.59348l0.0059833-0.11363-0.0017497-4.0594-0.0089713-0.087565-0.025-0.11889-0.024174-0.075827-0.033779-0.081555-0.052322-0.097487-0.066932-0.096314-0.079983-0.090118c-0.035376-0.03536-0.072764-0.067546-0.11178-0.096525l-0.11124-0.071663-0.11273-0.053446-0.10534-0.03538-0.11753-0.024827-0.059217-0.0070514-0.08925-0.0039664h-4c-0.85217 0-1.2974 0.98551-0.78323 1.6225l0.076118 0.08458 1.2921 1.2929-3.585 3.585-3.2929-3.2921c-0.36048-0.36048-0.92772-0.38821-1.32-0.083189l-0.094207 0.083189-7 7c-0.39052 0.39052-0.39052 1.0237 0 1.4142 0.36048 0.36048 0.92772 0.38821 1.32 0.083189z"/></svg>
