<?xml version="1.0" encoding="UTF-8"?>
<svg width="800px" height="800px" fill="#FFFFFF" viewBox="0 0 24 24" xmlns="http://www.w3.org/2000/svg"><path d="m3.5121 15h4.6598c-0.11241-0.94765-0.1719-1.9555-0.1719-3s0.059492-2.0524 0.1719-3h-4.6598c-0.33165 0.93834-0.51212 1.9481-0.51212 3s0.18046 2.0617 0.51212 3zm0.4234 1c1.1904 2.3953 3.4166 4.1851 6.0925 4.7833-0.77911-1.0605-1.3758-2.7462-1.7143-4.7833h-4.3782zm16.552-1c0.33165-0.93834 0.51212-1.9481 0.51212-3s-0.18046-2.0617-0.51212-3h-4.6598c0.11241 0.94765 0.1719 1.9555 0.1719 3s-0.059492 2.0524-0.1719 3h4.6598zm-0.4234 1h-4.3782c-0.33841 2.0371-0.93514 3.7228-1.7143 4.7833 2.6759-0.59817 4.9021-2.3879 6.0925-4.7833zm-10.88-1h5.6312c0.11842-0.93761 0.1844-1.9472 0.1844-3s-0.065982-2.0624-0.1844-3h-5.6312c-0.11842 0.93761-0.1844 1.9472-0.1844 3s0.065982 2.0624 0.1844 3zm0.15058 1c0.52219 2.9678 1.5831 5 2.665 5s2.1428-2.0322 2.665-5h-5.33zm-5.3995-8h4.3782c0.33841-2.0371 0.93514-3.7228 1.7143-4.7833-2.6759 0.59817-4.9021 2.3879-6.0925 4.7833zm16.129 0c-1.1904-2.3953-3.4166-4.1851-6.0925-4.7833 0.77911 1.0605 1.3758 2.7462 1.7143 4.7833h4.3782zm-10.729 0h5.33c-0.52219-2.9678-1.5831-5-2.665-5s-2.1428 2.0322-2.665 5zm2.665 14c-5.5228 0-10-4.4772-10-10s4.4772-10 10-10 10 4.4772 10 10-4.4772 10-10 10z"/></svg>
